<mxfile host="Electron" modified="2023-09-15T06:22:44.299Z" agent="Mozilla/5.0 (Windows NT 10.0; Win64; x64) AppleWebKit/537.36 (KHTML, like Gecko) draw.io/21.6.8 Chrome/114.0.5735.289 Electron/25.5.0 Safari/537.36" etag="I_Ulm8U9gA0QTnhjbkNX" version="21.6.8" type="device">
  <diagram name="Page-1" id="P3ZJvaG8-419oKFDqfzB">
    <mxGraphModel dx="1300" dy="840" grid="1" gridSize="10" guides="1" tooltips="1" connect="1" arrows="1" fold="1" page="1" pageScale="1" pageWidth="850" pageHeight="1100" math="0" shadow="0">
      <root>
        <mxCell id="0" />
        <mxCell id="1" parent="0" />
        <mxCell id="sLRXucy3f7uJR0IRpUES-84" value="" style="rounded=0;whiteSpace=wrap;html=1;dashed=1;fillColor=none;" vertex="1" parent="1">
          <mxGeometry x="1750" y="50" width="230" height="670" as="geometry" />
        </mxCell>
        <mxCell id="sLRXucy3f7uJR0IRpUES-5" value="" style="rounded=0;whiteSpace=wrap;html=1;dashed=1;fillColor=none;" vertex="1" parent="1">
          <mxGeometry x="530" y="40" width="230" height="670" as="geometry" />
        </mxCell>
        <mxCell id="sLRXucy3f7uJR0IRpUES-1" value="" style="rounded=0;whiteSpace=wrap;html=1;dashed=1;fillColor=none;" vertex="1" parent="1">
          <mxGeometry x="180" y="40" width="230" height="670" as="geometry" />
        </mxCell>
        <mxCell id="sLRXucy3f7uJR0IRpUES-2" value="Source" style="text;html=1;strokeColor=none;fillColor=none;align=center;verticalAlign=middle;whiteSpace=wrap;rounded=0;fontSize=15;" vertex="1" parent="1">
          <mxGeometry x="265" y="60" width="60" height="30" as="geometry" />
        </mxCell>
        <mxCell id="sLRXucy3f7uJR0IRpUES-6" value="" style="rounded=0;whiteSpace=wrap;html=1;dashed=1;fillColor=none;" vertex="1" parent="1">
          <mxGeometry x="860" y="40" width="230" height="670" as="geometry" />
        </mxCell>
        <mxCell id="sLRXucy3f7uJR0IRpUES-46" value="" style="edgeStyle=orthogonalEdgeStyle;rounded=0;orthogonalLoop=1;jettySize=auto;html=1;exitX=0.002;exitY=0.341;exitDx=0;exitDy=0;exitPerimeter=0;" edge="1" parent="1" source="sLRXucy3f7uJR0IRpUES-29" target="sLRXucy3f7uJR0IRpUES-6">
          <mxGeometry relative="1" as="geometry">
            <Array as="points">
              <mxPoint x="1200" y="170" />
              <mxPoint x="1145" y="170" />
              <mxPoint x="1145" y="375" />
            </Array>
          </mxGeometry>
        </mxCell>
        <mxCell id="sLRXucy3f7uJR0IRpUES-47" value="query and &lt;br&gt;enrich" style="edgeLabel;html=1;align=center;verticalAlign=middle;resizable=0;points=[];" vertex="1" connectable="0" parent="sLRXucy3f7uJR0IRpUES-46">
          <mxGeometry x="-0.1094" y="-5" relative="1" as="geometry">
            <mxPoint as="offset" />
          </mxGeometry>
        </mxCell>
        <mxCell id="sLRXucy3f7uJR0IRpUES-7" value="" style="rounded=0;whiteSpace=wrap;html=1;dashed=1;fillColor=none;" vertex="1" parent="1">
          <mxGeometry x="1170" y="50" width="230" height="670" as="geometry" />
        </mxCell>
        <mxCell id="sLRXucy3f7uJR0IRpUES-11" value="DataPreparation&lt;br&gt;Microservice" style="rounded=0;whiteSpace=wrap;html=1;fillColor=#d5e8d4;strokeColor=#82b366;" vertex="1" parent="1">
          <mxGeometry x="235" y="150" width="120" height="60" as="geometry" />
        </mxCell>
        <mxCell id="sLRXucy3f7uJR0IRpUES-13" value="Event Processing Platform" style="rounded=0;whiteSpace=wrap;html=1;fillColor=#fff2cc;strokeColor=#d6b656;" vertex="1" parent="1">
          <mxGeometry x="255" y="290" width="80" height="320" as="geometry" />
        </mxCell>
        <mxCell id="sLRXucy3f7uJR0IRpUES-14" value="" style="endArrow=classic;html=1;rounded=0;exitX=0.5;exitY=1;exitDx=0;exitDy=0;entryX=0.5;entryY=0;entryDx=0;entryDy=0;" edge="1" parent="1" source="sLRXucy3f7uJR0IRpUES-11" target="sLRXucy3f7uJR0IRpUES-13">
          <mxGeometry width="50" height="50" relative="1" as="geometry">
            <mxPoint x="510" y="370" as="sourcePoint" />
            <mxPoint x="560" y="320" as="targetPoint" />
          </mxGeometry>
        </mxCell>
        <mxCell id="sLRXucy3f7uJR0IRpUES-15" value="" style="endArrow=classic;html=1;rounded=0;entryX=0.01;entryY=0.709;entryDx=0;entryDy=0;entryPerimeter=0;" edge="1" parent="1" target="sLRXucy3f7uJR0IRpUES-17">
          <mxGeometry width="50" height="50" relative="1" as="geometry">
            <mxPoint x="330" y="400" as="sourcePoint" />
            <mxPoint x="532.4600000000003" y="437.30999999999995" as="targetPoint" />
          </mxGeometry>
        </mxCell>
        <mxCell id="sLRXucy3f7uJR0IRpUES-16" value="Ingestion" style="text;html=1;strokeColor=none;fillColor=none;align=center;verticalAlign=middle;whiteSpace=wrap;rounded=0;fontSize=15;" vertex="1" parent="1">
          <mxGeometry x="610" y="50" width="60" height="30" as="geometry" />
        </mxCell>
        <mxCell id="sLRXucy3f7uJR0IRpUES-17" value="&lt;br&gt;." style="rounded=0;whiteSpace=wrap;html=1;fillColor=#d5e8d4;strokeColor=#82b366;" vertex="1" parent="1">
          <mxGeometry x="585" y="300" width="120" height="140" as="geometry" />
        </mxCell>
        <mxCell id="sLRXucy3f7uJR0IRpUES-18" value="Read events and prepate the data to be stored into Storage" style="text;html=1;strokeColor=none;fillColor=none;align=center;verticalAlign=middle;whiteSpace=wrap;rounded=0;" vertex="1" parent="1">
          <mxGeometry x="595" y="380" width="100" height="30" as="geometry" />
        </mxCell>
        <mxCell id="sLRXucy3f7uJR0IRpUES-19" value="&lt;b&gt;Streaming Ingestion&lt;/b&gt;" style="text;html=1;strokeColor=none;fillColor=none;align=center;verticalAlign=middle;whiteSpace=wrap;rounded=0;" vertex="1" parent="1">
          <mxGeometry x="620" y="320" width="60" height="30" as="geometry" />
        </mxCell>
        <mxCell id="sLRXucy3f7uJR0IRpUES-21" value="" style="shape=cylinder3;whiteSpace=wrap;html=1;boundedLbl=1;backgroundOutline=1;size=15;fillColor=#d5e8d4;strokeColor=#82b366;" vertex="1" parent="1">
          <mxGeometry x="920" y="350" width="120" height="110" as="geometry" />
        </mxCell>
        <mxCell id="sLRXucy3f7uJR0IRpUES-24" value="" style="endArrow=classic;html=1;rounded=0;exitX=1.01;exitY=0.692;exitDx=0;exitDy=0;exitPerimeter=0;" edge="1" parent="1" source="sLRXucy3f7uJR0IRpUES-17">
          <mxGeometry width="50" height="50" relative="1" as="geometry">
            <mxPoint x="660" y="370" as="sourcePoint" />
            <mxPoint x="920" y="397" as="targetPoint" />
          </mxGeometry>
        </mxCell>
        <mxCell id="sLRXucy3f7uJR0IRpUES-25" value="Store raw data" style="edgeLabel;html=1;align=center;verticalAlign=middle;resizable=0;points=[];" vertex="1" connectable="0" parent="sLRXucy3f7uJR0IRpUES-24">
          <mxGeometry x="-0.1953" y="-8" relative="1" as="geometry">
            <mxPoint x="-1" as="offset" />
          </mxGeometry>
        </mxCell>
        <mxCell id="sLRXucy3f7uJR0IRpUES-26" value="Store" style="text;html=1;strokeColor=none;fillColor=none;align=center;verticalAlign=middle;whiteSpace=wrap;rounded=0;fontSize=15;" vertex="1" parent="1">
          <mxGeometry x="945" y="50" width="60" height="30" as="geometry" />
        </mxCell>
        <mxCell id="sLRXucy3f7uJR0IRpUES-27" value="Processing" style="text;html=1;strokeColor=none;fillColor=none;align=center;verticalAlign=middle;whiteSpace=wrap;rounded=0;fontSize=15;" vertex="1" parent="1">
          <mxGeometry x="1255" y="50" width="60" height="30" as="geometry" />
        </mxCell>
        <mxCell id="sLRXucy3f7uJR0IRpUES-29" value="" style="rounded=0;whiteSpace=wrap;html=1;fillColor=#d5e8d4;strokeColor=#82b366;" vertex="1" parent="1">
          <mxGeometry x="1200" y="120" width="170" height="90" as="geometry" />
        </mxCell>
        <mxCell id="sLRXucy3f7uJR0IRpUES-35" value="Used to enrich, analyze and process data" style="text;html=1;strokeColor=none;fillColor=none;align=center;verticalAlign=middle;whiteSpace=wrap;rounded=0;" vertex="1" parent="1">
          <mxGeometry x="1195" y="170" width="180" height="30" as="geometry" />
        </mxCell>
        <mxCell id="sLRXucy3f7uJR0IRpUES-36" value="Analytics and Processing Engine" style="text;html=1;strokeColor=none;fillColor=none;align=center;verticalAlign=middle;whiteSpace=wrap;rounded=0;fontStyle=1" vertex="1" parent="1">
          <mxGeometry x="1225" y="130" width="120" height="30" as="geometry" />
        </mxCell>
        <mxCell id="sLRXucy3f7uJR0IRpUES-37" value="" style="rounded=0;whiteSpace=wrap;html=1;fillColor=#d5e8d4;strokeColor=#82b366;" vertex="1" parent="1">
          <mxGeometry x="1200" y="260" width="170" height="90" as="geometry" />
        </mxCell>
        <mxCell id="sLRXucy3f7uJR0IRpUES-38" value="Used to host and serve Machine Learning Models" style="text;html=1;strokeColor=none;fillColor=none;align=center;verticalAlign=middle;whiteSpace=wrap;rounded=0;" vertex="1" parent="1">
          <mxGeometry x="1195" y="310" width="180" height="30" as="geometry" />
        </mxCell>
        <mxCell id="sLRXucy3f7uJR0IRpUES-39" value="ML Models" style="text;html=1;strokeColor=none;fillColor=none;align=center;verticalAlign=middle;whiteSpace=wrap;rounded=0;fontStyle=1" vertex="1" parent="1">
          <mxGeometry x="1225" y="270" width="120" height="30" as="geometry" />
        </mxCell>
        <mxCell id="sLRXucy3f7uJR0IRpUES-40" value="" style="rounded=0;whiteSpace=wrap;html=1;fillColor=#d5e8d4;strokeColor=#82b366;" vertex="1" parent="1">
          <mxGeometry x="1200" y="580" width="170" height="90" as="geometry" />
        </mxCell>
        <mxCell id="sLRXucy3f7uJR0IRpUES-41" value="Used to train ML Models" style="text;html=1;strokeColor=none;fillColor=none;align=center;verticalAlign=middle;whiteSpace=wrap;rounded=0;" vertex="1" parent="1">
          <mxGeometry x="1195" y="630" width="180" height="30" as="geometry" />
        </mxCell>
        <mxCell id="sLRXucy3f7uJR0IRpUES-42" value="ML Training" style="text;html=1;strokeColor=none;fillColor=none;align=center;verticalAlign=middle;whiteSpace=wrap;rounded=0;fontStyle=1" vertex="1" parent="1">
          <mxGeometry x="1225" y="590" width="120" height="30" as="geometry" />
        </mxCell>
        <mxCell id="sLRXucy3f7uJR0IRpUES-43" value="ML Store" style="shape=cylinder3;whiteSpace=wrap;html=1;boundedLbl=1;backgroundOutline=1;size=15;fillColor=#d5e8d4;strokeColor=#82b366;" vertex="1" parent="1">
          <mxGeometry x="1228" y="440" width="95" height="80" as="geometry" />
        </mxCell>
        <mxCell id="sLRXucy3f7uJR0IRpUES-48" value="" style="endArrow=classic;html=1;rounded=0;exitX=0.465;exitY=0.987;exitDx=0;exitDy=0;exitPerimeter=0;entryX=0.468;entryY=-0.002;entryDx=0;entryDy=0;entryPerimeter=0;" edge="1" parent="1" source="sLRXucy3f7uJR0IRpUES-29" target="sLRXucy3f7uJR0IRpUES-37">
          <mxGeometry width="50" height="50" relative="1" as="geometry">
            <mxPoint x="1190" y="400" as="sourcePoint" />
            <mxPoint x="1280" y="260" as="targetPoint" />
          </mxGeometry>
        </mxCell>
        <mxCell id="sLRXucy3f7uJR0IRpUES-50" value="" style="endArrow=classic;html=1;rounded=0;exitX=0.465;exitY=0.987;exitDx=0;exitDy=0;exitPerimeter=0;" edge="1" parent="1" target="sLRXucy3f7uJR0IRpUES-43">
          <mxGeometry width="50" height="50" relative="1" as="geometry">
            <mxPoint x="1275" y="350" as="sourcePoint" />
            <mxPoint x="1276" y="401" as="targetPoint" />
          </mxGeometry>
        </mxCell>
        <mxCell id="sLRXucy3f7uJR0IRpUES-51" value="" style="endArrow=classic;html=1;rounded=0;entryX=0.5;entryY=1;entryDx=0;entryDy=0;entryPerimeter=0;" edge="1" parent="1" target="sLRXucy3f7uJR0IRpUES-43">
          <mxGeometry width="50" height="50" relative="1" as="geometry">
            <mxPoint x="1276" y="580" as="sourcePoint" />
            <mxPoint x="1220" y="410" as="targetPoint" />
          </mxGeometry>
        </mxCell>
        <mxCell id="sLRXucy3f7uJR0IRpUES-52" value="" style="rounded=0;whiteSpace=wrap;html=1;dashed=1;fillColor=none;" vertex="1" parent="1">
          <mxGeometry x="1450" y="50" width="230" height="670" as="geometry" />
        </mxCell>
        <mxCell id="sLRXucy3f7uJR0IRpUES-53" value="Serving" style="text;html=1;strokeColor=none;fillColor=none;align=center;verticalAlign=middle;whiteSpace=wrap;rounded=0;fontSize=15;" vertex="1" parent="1">
          <mxGeometry x="1535" y="50" width="60" height="30" as="geometry" />
        </mxCell>
        <mxCell id="sLRXucy3f7uJR0IRpUES-55" value="Used to Store Raw data" style="text;html=1;strokeColor=none;fillColor=none;align=center;verticalAlign=middle;whiteSpace=wrap;rounded=0;" vertex="1" parent="1">
          <mxGeometry x="950" y="410" width="60" height="30" as="geometry" />
        </mxCell>
        <mxCell id="sLRXucy3f7uJR0IRpUES-56" value="Lakehouse" style="text;html=1;strokeColor=none;fillColor=none;align=center;verticalAlign=middle;whiteSpace=wrap;rounded=0;fontStyle=1" vertex="1" parent="1">
          <mxGeometry x="945" y="380" width="60" height="30" as="geometry" />
        </mxCell>
        <mxCell id="sLRXucy3f7uJR0IRpUES-57" value="" style="shape=cylinder3;whiteSpace=wrap;html=1;boundedLbl=1;backgroundOutline=1;size=15;fillColor=#d5e8d4;strokeColor=#82b366;" vertex="1" parent="1">
          <mxGeometry x="1500" y="220" width="130" height="130" as="geometry" />
        </mxCell>
        <mxCell id="sLRXucy3f7uJR0IRpUES-58" value="Used to store and serve processed analyzed data." style="text;html=1;strokeColor=none;fillColor=none;align=center;verticalAlign=middle;whiteSpace=wrap;rounded=0;" vertex="1" parent="1">
          <mxGeometry x="1520" y="300" width="100" height="30" as="geometry" />
        </mxCell>
        <mxCell id="sLRXucy3f7uJR0IRpUES-59" value="Data Warehouse" style="text;html=1;strokeColor=none;fillColor=none;align=center;verticalAlign=middle;whiteSpace=wrap;rounded=0;fontStyle=1" vertex="1" parent="1">
          <mxGeometry x="1535" y="260" width="60" height="30" as="geometry" />
        </mxCell>
        <mxCell id="sLRXucy3f7uJR0IRpUES-61" value="" style="endArrow=classic;html=1;rounded=0;exitX=0.952;exitY=0.049;exitDx=0;exitDy=0;exitPerimeter=0;entryX=0.5;entryY=0;entryDx=0;entryDy=0;entryPerimeter=0;" edge="1" parent="1" source="sLRXucy3f7uJR0IRpUES-35" target="sLRXucy3f7uJR0IRpUES-57">
          <mxGeometry width="50" height="50" relative="1" as="geometry">
            <mxPoint x="1320" y="400" as="sourcePoint" />
            <mxPoint x="1370" y="350" as="targetPoint" />
            <Array as="points">
              <mxPoint x="1565" y="171" />
            </Array>
          </mxGeometry>
        </mxCell>
        <mxCell id="sLRXucy3f7uJR0IRpUES-65" value="" style="rounded=0;whiteSpace=wrap;html=1;fillColor=#d5e8d4;strokeColor=#82b366;" vertex="1" parent="1">
          <mxGeometry x="1480" y="405" width="170" height="90" as="geometry" />
        </mxCell>
        <mxCell id="sLRXucy3f7uJR0IRpUES-77" style="edgeStyle=orthogonalEdgeStyle;rounded=0;orthogonalLoop=1;jettySize=auto;html=1;entryX=0.5;entryY=0;entryDx=0;entryDy=0;exitX=0.5;exitY=1;exitDx=0;exitDy=0;" edge="1" parent="1" source="sLRXucy3f7uJR0IRpUES-65" target="sLRXucy3f7uJR0IRpUES-70">
          <mxGeometry relative="1" as="geometry">
            <mxPoint x="1565" y="500" as="sourcePoint" />
          </mxGeometry>
        </mxCell>
        <mxCell id="sLRXucy3f7uJR0IRpUES-66" value="APIs to be exposed to paid subscribers and internal Microservices&amp;nbsp;" style="text;html=1;strokeColor=none;fillColor=none;align=center;verticalAlign=middle;whiteSpace=wrap;rounded=0;" vertex="1" parent="1">
          <mxGeometry x="1487.5" y="455" width="152.5" height="30" as="geometry" />
        </mxCell>
        <mxCell id="sLRXucy3f7uJR0IRpUES-67" value="CustomerTrendsAPIs" style="text;html=1;strokeColor=none;fillColor=none;align=center;verticalAlign=middle;whiteSpace=wrap;rounded=0;fontStyle=1" vertex="1" parent="1">
          <mxGeometry x="1505" y="415" width="120" height="30" as="geometry" />
        </mxCell>
        <mxCell id="sLRXucy3f7uJR0IRpUES-70" value="" style="rounded=0;whiteSpace=wrap;html=1;fillColor=#d5e8d4;strokeColor=#82b366;" vertex="1" parent="1">
          <mxGeometry x="1480" y="570" width="170" height="90" as="geometry" />
        </mxCell>
        <mxCell id="sLRXucy3f7uJR0IRpUES-71" value="Payment Integration to manage subscriptions for API" style="text;html=1;strokeColor=none;fillColor=none;align=center;verticalAlign=middle;whiteSpace=wrap;rounded=0;" vertex="1" parent="1">
          <mxGeometry x="1475" y="620" width="180" height="30" as="geometry" />
        </mxCell>
        <mxCell id="sLRXucy3f7uJR0IRpUES-72" value="Payment Subscription" style="text;html=1;strokeColor=none;fillColor=none;align=center;verticalAlign=middle;whiteSpace=wrap;rounded=0;fontStyle=1" vertex="1" parent="1">
          <mxGeometry x="1505" y="580" width="120" height="30" as="geometry" />
        </mxCell>
        <mxCell id="sLRXucy3f7uJR0IRpUES-73" value="" style="endArrow=classic;html=1;rounded=0;entryX=0.5;entryY=1;entryDx=0;entryDy=0;entryPerimeter=0;exitX=0.5;exitY=0;exitDx=0;exitDy=0;" edge="1" parent="1" source="sLRXucy3f7uJR0IRpUES-65" target="sLRXucy3f7uJR0IRpUES-57">
          <mxGeometry width="50" height="50" relative="1" as="geometry">
            <mxPoint x="1565" y="400" as="sourcePoint" />
            <mxPoint x="1640" y="340" as="targetPoint" />
          </mxGeometry>
        </mxCell>
        <mxCell id="sLRXucy3f7uJR0IRpUES-78" value="ReportingService" style="rounded=0;whiteSpace=wrap;html=1;fillColor=#d5e8d4;strokeColor=#82b366;" vertex="1" parent="1">
          <mxGeometry x="1805" y="567.5" width="120" height="75" as="geometry" />
        </mxCell>
        <mxCell id="sLRXucy3f7uJR0IRpUES-79" value="" style="endArrow=classic;html=1;rounded=0;exitX=0.5;exitY=0;exitDx=0;exitDy=0;entryX=0.989;entryY=0.713;entryDx=0;entryDy=0;entryPerimeter=0;" edge="1" parent="1" source="sLRXucy3f7uJR0IRpUES-78" target="sLRXucy3f7uJR0IRpUES-65">
          <mxGeometry width="50" height="50" relative="1" as="geometry">
            <mxPoint x="1550" y="420" as="sourcePoint" />
            <mxPoint x="1600" y="370" as="targetPoint" />
            <Array as="points">
              <mxPoint x="1865" y="470" />
              <mxPoint x="1760" y="470" />
            </Array>
          </mxGeometry>
        </mxCell>
        <mxCell id="sLRXucy3f7uJR0IRpUES-85" value="Consumers" style="text;html=1;strokeColor=none;fillColor=none;align=center;verticalAlign=middle;whiteSpace=wrap;rounded=0;fontSize=15;" vertex="1" parent="1">
          <mxGeometry x="1835" y="50" width="60" height="30" as="geometry" />
        </mxCell>
        <mxCell id="sLRXucy3f7uJR0IRpUES-87" value="Paid API Subscribers" style="rounded=0;whiteSpace=wrap;html=1;fillColor=#d5e8d4;strokeColor=#82b366;" vertex="1" parent="1">
          <mxGeometry x="1805" y="260" width="120" height="75" as="geometry" />
        </mxCell>
        <mxCell id="sLRXucy3f7uJR0IRpUES-88" value="" style="endArrow=classic;html=1;rounded=0;exitX=0.569;exitY=0.957;exitDx=0;exitDy=0;entryX=1;entryY=0.389;entryDx=0;entryDy=0;entryPerimeter=0;exitPerimeter=0;" edge="1" parent="1" source="sLRXucy3f7uJR0IRpUES-87" target="sLRXucy3f7uJR0IRpUES-65">
          <mxGeometry width="50" height="50" relative="1" as="geometry">
            <mxPoint x="1875" y="578" as="sourcePoint" />
            <mxPoint x="1661" y="477" as="targetPoint" />
            <Array as="points">
              <mxPoint x="1873" y="440" />
            </Array>
          </mxGeometry>
        </mxCell>
      </root>
    </mxGraphModel>
  </diagram>
</mxfile>
